Coordinates
version=1
nRows=8
nColumns=63
inDegrees=yes

Units are S.I. units (second, meters, Newtons, ...)
If the header above contains a line with 'inDegrees', this indicates whether rotational values are in degrees (yes) or radians (no).

endheader
time	pelvis_tilt	pelvis_list	pelvis_rotation	pelvis_tx	pelvis_ty	pelvis_tz	hip_flexion_r	hip_adduction_r	hip_rotation_r	knee_angle_r	knee_angle_r_beta	ankle_angle_r	subtalar_angle_r	mtp_angle_r	hip_flexion_l	hip_adduction_l	hip_rotation_l	knee_angle_l	knee_angle_l_beta	ankle_angle_l	subtalar_angle_l	mtp_angle_l	L5_S1_Flex_Ext	L5_S1_Lat_Bending	L5_S1_axial_rotation	L4_L5_Flex_Ext	L4_L5_Lat_Bending	L4_L5_axial_rotation	L3_L4_Flex_Ext	L3_L4_Lat_Bending	L3_L4_axial_rotation	L2_L3_Flex_Ext	L2_L3_Lat_Bending	L2_L3_axial_rotation	L1_L2_Flex_Ext	L1_L2_Lat_Bending	L1_L2_axial_rotation	L1_T12_Flex_Ext	L1_T12_Lat_Bending	L1_T12_axial_rotation	Abs_r3	Abs_r2	Abs_r1	Abs_t1	Abs_t2	neck_flexion	neck_bending	neck_rotation	arm_flex_r	arm_add_r	arm_rot_r	elbow_flex_r	pro_sup_r	wrist_flex_r	wrist_dev_r	arm_flex_l	arm_add_l	arm_rot_l	elbow_flex_l	pro_sup_l	wrist_flex_l	wrist_dev_l
4.350000	2.426832	-0.048981	93.606858	0.242541	0.996792	0.441938	-1.273417	2.574339	6.710458	0.490821	0.008566	22.586735	-7.240859	0.000000	0.846394	-3.534379	-6.360235	4.437205	0.077444	25.469806	9.899745	0.000000	0.055023	0.288010	0.436098	0.102183	0.383054	0.463354	0.090397	0.700268	0.463354	0.062885	0.700268	0.381585	0.051094	0.587311	0.354329	0.031440	0.446128	0.327073	0.393021	3.258030	2.425444	0.000000	0.000000	27.012724	-1.120284	-0.697537	-3.244845	-34.686175	-1.708187	138.712185	89.270896	-12.386598	16.477017	10.395869	-29.665592	11.285755	126.004492	89.863735	-10.706758	-6.819306
4.366667	2.394078	0.092960	93.884590	0.242107	0.996802	0.440882	-1.603259	2.506621	6.345821	0.434234	0.007579	22.724813	-6.803189	0.000000	0.782722	-3.533367	-6.617742	4.688916	0.081837	25.749052	10.567368	0.000000	0.042766	0.286209	0.373749	0.079421	0.380658	0.397109	0.070261	0.695889	0.397109	0.048878	0.695889	0.327031	0.039713	0.583638	0.303671	0.024437	0.443338	0.280312	0.305475	3.237654	2.078683	0.000000	0.000000	26.887495	-0.795546	-0.621219	-2.381197	-36.695765	1.833785	140.737201	89.240028	-14.956267	18.630035	10.124527	-30.747626	13.787993	128.092541	90.010921	-11.839610	-6.820902
4.383333	2.356907	0.214021	94.103620	0.241746	0.996845	0.439668	-1.899809	2.441601	6.102275	0.399832	0.006978	22.827996	-6.527763	0.000000	0.705077	-3.524513	-6.833746	4.901839	0.085553	26.025817	11.112904	0.000000	0.034295	0.283417	0.324631	0.063689	0.376945	0.344920	0.056343	0.689100	0.344920	0.039196	0.689100	0.284052	0.031846	0.577944	0.263763	0.019596	0.439013	0.243473	0.244965	3.206069	1.805500	0.000000	0.000000	26.759742	-0.459058	-0.604892	-1.397353	-38.565401	4.991771	142.389005	88.364602	-16.343969	20.915599	9.728238	-31.732095	16.159055	130.110779	89.674755	-13.303819	-6.320165
4.400000	2.325007	0.308318	94.302362	0.241400	0.996903	0.438401	-2.152873	2.386527	5.941981	0.380504	0.006641	22.895532	-6.394974	0.000000	0.627805	-3.515358	-6.971256	5.064431	0.088391	26.292276	11.544348	0.000000	0.029430	0.281425	0.283738	0.054654	0.374296	0.301471	0.048351	0.684258	0.301471	0.033636	0.684258	0.248270	0.027329	0.573883	0.230537	0.016816	0.435928	0.212803	0.210216	3.183540	1.578063	0.000000	0.000000	26.646923	-0.084464	-0.569571	-0.371649	-40.216912	7.657522	143.697090	86.951340	-16.550293	23.134994	9.243608	-32.585003	18.353891	132.003667	89.075553	-15.020880	-5.523345
4.416667	2.309544	0.367099	94.435560	0.241111	0.996936	0.437104	-2.349311	2.348418	5.914130	0.370557	0.006467	22.918756	-6.399595	0.000000	0.554266	-3.516032	-7.108866	5.174930	0.090320	26.555285	11.899840	0.000000	0.028627	0.282437	0.248567	0.053163	0.375641	0.264102	0.047031	0.686716	0.264102	0.032718	0.686716	0.217496	0.026583	0.575945	0.201961	0.016357	0.437494	0.186425	0.204479	3.194978	1.382455	0.000000	0.000000	26.567083	0.206771	-0.561723	0.719227	-41.614071	9.863266	144.693849	85.765058	-15.837628	24.941387	8.581239	-33.290958	20.192750	133.829366	88.546013	-16.841218	-4.379217
4.433333	2.313497	0.392533	94.499250	0.240864	0.996939	0.435778	-2.493584	2.328888	5.976514	0.364475	0.006361	22.919077	-6.486746	0.000000	0.480876	-3.526678	-7.198824	5.233768	0.091346	26.789770	12.106866	0.000000	0.032412	0.286650	0.216201	0.060192	0.381245	0.229714	0.053250	0.696961	0.229714	0.037044	0.696961	0.189176	0.030098	0.584537	0.175664	0.018520	0.444021	0.162151	0.231515	3.242643	1.202448	0.000000	0.000000	26.510267	0.464873	-0.521316	1.914399	-42.664451	11.448088	145.360284	84.551118	-13.521400	26.521697	7.794005	-33.875665	21.812147	135.529875	88.275562	-19.147131	-3.305498
4.450000	2.329290	0.388418	94.499948	0.240690	0.996874	0.434525	-2.585230	2.321415	6.260641	0.358519	0.006257	22.855822	-6.841485	0.000000	0.415696	-3.543797	-7.262248	5.251953	0.091664	26.994511	12.209740	0.000000	0.039076	0.292829	0.181882	0.072567	0.389463	0.193249	0.064197	0.711984	0.193249	0.044660	0.711984	0.159146	0.036286	0.597137	0.147779	0.022328	0.453592	0.136411	0.279114	3.312540	1.011571	0.000000	0.000000	26.490879	0.690415	-0.435363	3.127077	-43.409716	12.610631	145.784856	83.778663	-10.640656	27.569116	6.907773	-34.362719	23.025663	137.113623	88.096916	-21.296543	-2.083398
4.466667	2.364784	0.369890	94.459358	0.240533	0.996729	0.433405	-2.637942	2.332943	6.607647	0.354550	0.006188	22.795578	-7.253873	0.000000	0.360746	-3.576022	-7.335156	5.252468	0.091673	27.186312	12.275843	0.000000	0.046317	0.303143	0.147296	0.086015	0.403181	0.156502	0.076094	0.737063	0.156502	0.052935	0.737063	0.128884	0.043010	0.618170	0.119678	0.026465	0.469569	0.110472	0.330836	3.429220	0.819217	0.000000	0.000000	26.511823	0.808631	-0.304687	4.032781	-43.655090	12.230349	146.260229	83.267579	-4.177130	29.985612	6.041324	-34.773538	23.969784	138.495748	87.959332	-23.407948	-0.973239
